<svg width="16" height="16" viewBox="0 0 16 16" xmlns="http://www.w3.org/2000/svg">
    <path d="M9 8C9 7.44771 8.55229 7 8 7C7.44771 7 7 7.44771 7 8V12H9V8Z" />
    <path
        d="M8 6C8.55229 6 9 5.55229 9 5C9 4.44771 8.55229 4 8 4C7.44771 4 7 4.44771 7 5C7 5.55229 7.44771 6 8 6Z"
    />
    <path
        d="M0 8C0 3.58172 3.58172 0 8 0C12.4183 0 16 3.58172 16 8C16 12.4183 12.4183 16 8 16C3.58172 16 0 12.4183 0 8ZM8 2C4.68629 2 2 4.68629 2 8C2 11.3137 4.68629 14 8 14C11.3137 14 14 11.3137 14 8C14 4.68629 11.3137 2 8 2Z"
    />
</svg>
